<svg width="103" height="27" viewBox="0 0 103 27" fill="none" xmlns="http://www.w3.org/2000/svg">
<g clip-path="url(#clip0_173_5520)">
<path d="M13.3 20.5C9.7 20.5 6.8 17.3 6.8 13.4C6.8 9.5 9.7 6.3 13.3 6.3C15 6.3 16.6 7.1 17.8 8.3L22.4 3.8C19.9 1.5 16.7 0 13.1 0C5.9 0 0 6 0 13.5C0 20.9 5.9 27 13.1 27C16.7 27 20 25.5 22.3 23.1L17.7 18.6C16.6 19.8 15 20.5 13.3 20.5ZM32.2 0.6L19.5 13L19.1 13.4L32.2 26.3L36.7 21.9L27.8 13.5L36.7 5L32.2 0.6ZM67.3 0.9H58.7V26H67.4C75.3 26 81 21.2 81 13.5C81 5.7 75.3 0.9 67.3 0.9ZM67.3 20.4H65.2V6.6H67.3C71.9 6.6 74.3 9.6 74.3 13.5C74.3 17.2 71.7 20.4 67.3 20.4ZM102.6 6.6V0.9H84V26H102.6V20.4H90.5V16.1H102.3V10.5H90.5V6.6H102.6ZM42.8 0.6L38.3 5L47.2 13.5L38.3 21.9L42.8 26.3L55.9 13.4L55.5 13L42.8 0.6Z" fill="#F0F0F0"/>
<path d="M19.4996 12.9996L32.1996 0.599609L36.6996 4.99961L27.7996 13.4996L36.6996 21.8996L32.1996 26.2996L19.0996 13.3996L19.4996 12.9996Z" fill="#5965F2"/>
<path d="M38.2996 4.99961L42.7996 0.599609L55.4996 12.9996L55.8996 13.3996L42.7996 26.2996L38.2996 21.8996L47.1996 13.4996L38.2996 4.99961Z" fill="#5965F2"/>
</g>
<defs>
<clipPath id="clip0_173_5520">
<rect width="102.6" height="26.9" fill="white"/>
</clipPath>
</defs>
</svg>
